<svg id="Capa_1" fill="currentColor" data-name="Capa 1" xmlns="http://www.w3.org/2000/svg" viewBox="0 0 26.74 17.02"><defs><style>.cls-1{fill:#fff;}</style></defs><title>bahance</title><path class="cls-1" d="M530.63,301.06a4,4,0,0,0,1.27-.95,3.7,3.7,0,0,0,.77-2.44,4.22,4.22,0,0,0-.76-2.53q-1.27-1.72-4.3-1.77h-8V310h7.48a11.48,11.48,0,0,0,2.35-.23,4.56,4.56,0,0,0,1.88-.83,4.61,4.61,0,0,0,1.18-1.31,4.86,4.86,0,0,0,.74-2.65,4.4,4.4,0,0,0-.65-2.43A3.7,3.7,0,0,0,530.63,301.06Zm-7.74-4.81h3.61a6.23,6.23,0,0,1,2,.26,1.49,1.49,0,0,1,.89,1.53,1.57,1.57,0,0,1-.68,1.46,3.34,3.34,0,0,1-1.76.41h-4v-3.66Zm5.71,10.54a3.91,3.91,0,0,1-1.68.29h-4v-4.43H527a4.19,4.19,0,0,1,1.66.28,1.78,1.78,0,0,1,1.06,1.78A2.09,2.09,0,0,1,528.6,306.79Z" transform="translate(-519.58 -293.36)"/><path class="cls-1" d="M546.21,302.29a6,6,0,0,0-1-2.54,5,5,0,0,0-2.12-1.82,7,7,0,0,0-2.89-.57,5.92,5.92,0,0,0-4.39,1.7,6.64,6.64,0,0,0-1.69,4.89q0,3.41,1.87,4.92a6.69,6.69,0,0,0,4.32,1.51,6,6,0,0,0,4.62-1.79,4,4,0,0,0,1.19-2.22h-3.28a2.68,2.68,0,0,1-.66.84,2.72,2.72,0,0,1-1.78.56,3.26,3.26,0,0,1-1.77-.46,3,3,0,0,1-1.28-2.59h8.94A15.74,15.74,0,0,0,546.21,302.29Zm-8.76.32a3.34,3.34,0,0,1,.86-1.9,2.55,2.55,0,0,1,1.92-.7,2.82,2.82,0,0,1,1.91.66,2.68,2.68,0,0,1,.86,1.94h-5.53Z" transform="translate(-519.58 -293.36)"/><rect class="cls-1" x="16.82" y="0.95" width="7.22" height="1.68"/></svg>